<svg width="24" height="24" viewBox="0 0 24 24" fill="none" xmlns="http://www.w3.org/2000/svg">
<path fill-rule="evenodd" clip-rule="evenodd" d="M11.9998 0C18.6165 0 23.9998 5.38326 23.9998 12C23.9998 18.6167 18.6165 24 11.9998 24C5.38307 24 -0.000198364 18.6167 -0.000198364 12C-0.000198364 5.38326 5.38307 0 11.9998 0ZM11.9998 1.73728C6.34089 1.73728 1.73709 6.34225 1.73709 12C1.73709 17.6589 6.34089 22.2627 11.9998 22.2627C17.6587 22.2627 22.2625 17.6589 22.2625 12C22.2625 6.34225 17.6587 1.73728 11.9998 1.73728ZM16.4838 7.51653C16.712 7.74586 16.7954 8.08289 16.6981 8.38981L14.8543 14.2838C14.7697 14.556 14.5555 14.7691 14.2844 14.8537L8.39042 16.6987C8.30471 16.7253 8.21669 16.738 8.13099 16.738C7.90398 16.738 7.68161 16.6489 7.51599 16.4844C7.28782 16.2551 7.20443 15.918 7.30172 15.6111L9.14672 9.71709C9.23127 9.44376 9.44437 9.23181 9.71539 9.14726L15.6094 7.30227C15.9187 7.20382 16.2545 7.28837 16.4838 7.51653ZM14.545 9.45534L10.6686 10.6691L9.45596 14.5456L13.3313 13.3318L14.545 9.45534Z" fill="#484C52"/>
</svg>
