<svg width="22" height="24" viewBox="0 0 22 24" fill="none" xmlns="http://www.w3.org/2000/svg">
<path d="M12.8244 9H9.1603C8.65648 9 8.24427 8.55 8.24427 8C8.24427 7.45 8.65648 7 9.1603 7H12.8244C13.3282 7 13.7405 7.45 13.7405 8C13.7405 8.55 13.3282 9 12.8244 9Z" fill="#484C52"/>
<path d="M12.8244 12H9.1603C8.65648 12 8.24427 11.55 8.24427 11C8.24427 10.45 8.65648 10 9.1603 10H12.8244C13.3282 10 13.7405 10.45 13.7405 11C13.7405 11.55 13.3282 12 12.8244 12Z" fill="#484C52"/>
<path d="M20.3333 1.8L18.6667 0L17 1.8L15.3333 0L13.6667 1.8L12 0L10.3333 1.8L8.66667 0L7 1.8L5.33333 0V16.8H3.11111C2.5 16.8 2 17.34 2 18V20.4C2 22.392 3.48889 24 5.33333 24H18.6667C20.5111 24 22 22.392 22 20.4V0L20.3333 1.8ZM15.3333 21.6H5.33333C4.72222 21.6 4.22222 21.06 4.22222 20.4V19.2H7.55556H12H15.3333V21.6ZM19.7778 20.4C19.7778 21.06 19.2778 21.6 18.6667 21.6C18.0556 21.6 17.5556 21.06 17.5556 20.4V18C17.5556 17.34 17.0556 16.8 16.4444 16.8H14.2222H12H7.55556V3.6H19.7778V20.4Z" fill="#484C52"/>
<path d="M15.5725 9C16.0784 9 16.4885 8.55228 16.4885 8C16.4885 7.44772 16.0784 7 15.5725 7C15.0666 7 14.6565 7.44772 14.6565 8C14.6565 8.55228 15.0666 9 15.5725 9Z" fill="#484C52"/>
<path d="M15.5725 12C16.0784 12 16.4885 11.5523 16.4885 11C16.4885 10.4477 16.0784 10 15.5725 10C15.0666 10 14.6565 10.4477 14.6565 11C14.6565 11.5523 15.0666 12 15.5725 12Z" fill="#484C52"/>
</svg>
